<svg xmlns="http://www.w3.org/2000/svg" xmlns:xlink="http://www.w3.org/1999/xlink" width="500" zoomAndPan="magnify" viewBox="0 0 375 374.999991" height="500" preserveAspectRatio="xMidYMid meet" version="1.0"><defs><g/><clipPath id="b6a6054976"><path d="M 85.347656 57.480469 L 289.347656 57.480469 L 289.347656 261.480469 L 85.347656 261.480469 Z M 85.347656 57.480469 " clip-rule="nonzero"/></clipPath></defs><rect x="-37.5" width="450" fill="#ffffff" y="-37.499999" height="449.999989" fill-opacity="1"/><rect x="-37.5" width="450" fill="#ffffff" y="-37.499999" height="449.999989" fill-opacity="1"/><rect x="-37.5" width="450" fill="#5271ff" y="-37.499999" height="449.999989" fill-opacity="1"/><g clip-path="url(#b6a6054976)"><path fill="#fcc22d" d="M 289.347656 159.480469 C 289.347656 215.804688 243.71875 261.433594 187.390625 261.433594 C 131.066406 261.433594 85.347656 215.898438 85.347656 159.480469 C 85.347656 103.0625 130.972656 57.527344 187.300781 57.527344 C 243.625 57.527344 289.347656 103.152344 289.347656 159.480469 Z M 289.347656 159.480469 " fill-opacity="1" fill-rule="nonzero"/></g><path fill="#000000" d="M 184.101562 116.960938 L 177.515625 116.960938 C 177.515625 111.109375 177.515625 103.152344 177.515625 97.300781 C 180.808594 97.300781 187.300781 97.300781 190.59375 97.300781 L 190.59375 103.886719 L 184.101562 103.886719 C 184.101562 107.175781 184.101562 113.761719 184.101562 116.960938 Z M 177.515625 123.542969 L 177.515625 130.128906 L 184.101562 130.128906 L 184.101562 123.542969 Z M 184.101562 136.621094 L 177.515625 136.621094 L 177.515625 143.203125 L 184.101562 143.203125 Z M 190.59375 143.203125 L 197.175781 143.203125 C 197.175781 132.6875 197.175781 120.984375 197.175781 110.46875 L 190.59375 110.46875 L 190.59375 116.960938 L 184.101562 116.960938 L 184.101562 123.542969 L 190.683594 123.542969 L 190.683594 130.128906 L 184.101562 130.128906 L 184.101562 136.710938 L 190.683594 136.710938 L 190.683594 143.203125 Z M 197.175781 156.28125 L 203.757812 156.28125 L 203.757812 149.695312 L 197.175781 149.695312 Z M 131.707031 156.28125 L 131.707031 149.695312 L 125.121094 149.695312 C 125.121094 155.546875 125.121094 163.503906 125.121094 169.355469 C 128.414062 169.355469 134.90625 169.355469 138.199219 169.355469 L 138.199219 162.773438 L 131.613281 162.773438 L 131.613281 156.28125 Z M 203.667969 182.429688 L 210.25 182.429688 L 210.25 175.847656 L 203.667969 175.847656 Z M 223.328125 182.429688 L 223.328125 189.015625 L 229.910156 189.015625 L 229.910156 195.597656 C 226.621094 195.597656 220.128906 195.597656 216.835938 195.597656 L 216.835938 202.183594 L 223.417969 202.183594 L 223.417969 208.765625 L 216.835938 208.765625 L 216.835938 215.347656 L 210.25 215.347656 L 210.25 221.933594 C 199.734375 221.933594 188.03125 221.933594 177.515625 221.933594 L 177.515625 215.347656 L 184.101562 215.347656 C 184.101562 212.058594 184.101562 205.566406 184.101562 202.273438 L 190.683594 202.273438 C 190.683594 205.566406 190.683594 212.058594 190.683594 215.347656 L 197.265625 215.347656 L 197.265625 208.765625 C 200.558594 208.765625 207.050781 208.765625 210.34375 208.765625 C 210.34375 205.472656 210.34375 198.980469 210.34375 195.691406 L 203.757812 195.691406 L 203.757812 202.273438 C 200.46875 202.273438 193.976562 202.273438 190.683594 202.273438 C 190.683594 198.980469 190.683594 192.488281 190.683594 189.199219 L 184.101562 189.199219 C 184.101562 192.488281 184.101562 198.980469 184.101562 202.273438 L 177.515625 202.273438 C 177.515625 191.757812 177.515625 180.054688 177.515625 169.539062 C 167 169.539062 155.296875 169.539062 144.78125 169.539062 C 144.78125 163.6875 144.78125 155.730469 144.78125 149.878906 C 159.777344 149.878906 175.597656 149.878906 190.59375 149.878906 L 190.59375 156.460938 C 187.300781 156.460938 180.808594 156.460938 177.515625 156.460938 L 177.515625 163.046875 C 188.03125 163.046875 199.734375 163.046875 210.25 163.046875 L 210.25 156.28125 L 216.835938 156.28125 L 216.835938 149.695312 L 223.417969 149.695312 C 223.417969 152.988281 223.417969 159.480469 223.417969 162.773438 L 230.003906 162.773438 C 230.003906 159.480469 230.003906 152.988281 230.003906 149.695312 C 235.855469 149.695312 243.808594 149.695312 249.660156 149.695312 L 249.660156 156.28125 L 243.078125 156.28125 C 243.078125 159.570312 243.078125 166.0625 243.078125 169.355469 C 239.785156 169.355469 233.292969 169.355469 230.003906 169.355469 C 230.003906 172.648438 230.003906 179.140625 230.003906 182.429688 Z M 171.023438 162.773438 L 171.023438 156.28125 C 165.171875 156.28125 157.21875 156.28125 151.363281 156.28125 L 151.363281 162.863281 L 171.023438 162.863281 Z M 184.101562 175.847656 L 190.683594 175.847656 L 190.683594 169.265625 L 184.101562 169.265625 Z M 216.742188 169.355469 C 210.890625 169.355469 202.9375 169.355469 197.085938 169.355469 C 197.085938 175.207031 197.085938 183.164062 197.085938 189.015625 C 202.9375 189.015625 210.890625 189.015625 216.742188 189.015625 C 216.742188 183.164062 216.742188 175.207031 216.742188 169.355469 Z M 216.742188 215.167969 L 216.742188 221.75 C 220.035156 221.75 226.527344 221.75 229.820312 221.75 L 229.820312 215.167969 L 236.402344 215.167969 L 236.402344 208.582031 L 242.988281 208.582031 L 242.988281 215.167969 L 249.570312 215.167969 C 249.570312 204.652344 249.570312 192.945312 249.570312 182.429688 L 242.988281 182.429688 L 242.988281 189.015625 L 236.402344 189.015625 L 236.402344 195.597656 L 242.988281 195.597656 L 242.988281 202.183594 C 239.695312 202.183594 233.203125 202.183594 229.910156 202.183594 L 229.910156 208.765625 L 223.328125 208.765625 L 223.328125 215.347656 L 216.742188 215.347656 Z M 138.289062 130.035156 L 157.949219 130.035156 L 157.949219 110.46875 L 138.289062 110.46875 Z M 171.023438 97.394531 L 171.023438 143.203125 L 125.214844 143.203125 L 125.214844 97.394531 Z M 164.074219 104.25 L 132.070312 104.25 L 132.070312 136.347656 L 164.167969 136.347656 L 164.167969 104.25 Z M 216.742188 130.035156 L 236.402344 130.035156 L 236.402344 110.46875 L 216.742188 110.46875 Z M 249.480469 97.394531 L 249.480469 143.203125 L 203.667969 143.203125 L 203.667969 97.394531 Z M 242.621094 104.25 L 210.617188 104.25 L 210.617188 136.347656 L 242.621094 136.347656 Z M 138.289062 208.582031 L 157.949219 208.582031 L 157.949219 188.921875 L 138.289062 188.921875 Z M 171.023438 175.847656 L 171.023438 221.660156 L 125.214844 221.660156 L 125.214844 175.847656 Z M 164.074219 182.796875 L 132.070312 182.796875 L 132.070312 214.800781 L 164.167969 214.800781 L 164.167969 182.796875 Z M 164.074219 182.796875 " fill-opacity="1" fill-rule="nonzero"/><g fill="#ffffff" fill-opacity="1"><g transform="translate(93.664233, 322.319129)"><g><path d="M 10.765625 -5.375 C 10.765625 -4 10.488281 -2.859375 9.9375 -1.953125 C 9.382812 -1.046875 8.609375 -0.429688 7.609375 -0.109375 L 10.15625 2.546875 L 8.34375 2.546875 L 6.25 0.125 L 5.859375 0.140625 C 4.273438 0.140625 3.054688 -0.335938 2.203125 -1.296875 C 1.347656 -2.265625 0.921875 -3.628906 0.921875 -5.390625 C 0.921875 -7.128906 1.347656 -8.476562 2.203125 -9.4375 C 3.066406 -10.394531 4.285156 -10.875 5.859375 -10.875 C 7.398438 -10.875 8.601562 -10.382812 9.46875 -9.40625 C 10.332031 -8.4375 10.765625 -7.09375 10.765625 -5.375 Z M 2.234375 -5.375 C 2.234375 -3.914062 2.539062 -2.8125 3.15625 -2.0625 C 3.78125 -1.3125 4.679688 -0.9375 5.859375 -0.9375 C 7.035156 -0.9375 7.925781 -1.3125 8.53125 -2.0625 C 9.144531 -2.8125 9.453125 -3.914062 9.453125 -5.375 C 9.453125 -6.8125 9.148438 -7.898438 8.546875 -8.640625 C 7.941406 -9.390625 7.046875 -9.765625 5.859375 -9.765625 C 4.679688 -9.765625 3.78125 -9.390625 3.15625 -8.640625 C 2.539062 -7.890625 2.234375 -6.800781 2.234375 -5.375 Z M 2.234375 -5.375 "/></g></g></g><g fill="#ffffff" fill-opacity="1"><g transform="translate(108.526394, 322.319129)"><g><path d="M 2.71875 -4.453125 L 2.71875 0 L 1.46875 0 L 1.46875 -10.703125 L 4.40625 -10.703125 C 5.71875 -10.703125 6.6875 -10.453125 7.3125 -9.953125 C 7.945312 -9.453125 8.265625 -8.695312 8.265625 -7.6875 C 8.265625 -6.269531 7.546875 -5.3125 6.109375 -4.8125 L 9.015625 0 L 7.546875 0 L 4.953125 -4.453125 Z M 2.71875 -5.515625 L 4.421875 -5.515625 C 5.304688 -5.515625 5.953125 -5.6875 6.359375 -6.03125 C 6.765625 -6.382812 6.96875 -6.914062 6.96875 -7.625 C 6.96875 -8.320312 6.757812 -8.828125 6.34375 -9.140625 C 5.925781 -9.453125 5.257812 -9.609375 4.34375 -9.609375 L 2.71875 -9.609375 Z M 2.71875 -5.515625 "/></g></g></g><g fill="#ffffff" fill-opacity="1"><g transform="translate(120.978887, 322.319129)"><g/></g></g><g fill="#ffffff" fill-opacity="1"><g transform="translate(128.055403, 322.319129)"><g><path d="M 6.0625 -9.75 C 4.882812 -9.75 3.953125 -9.351562 3.265625 -8.5625 C 2.585938 -7.78125 2.25 -6.710938 2.25 -5.359375 C 2.25 -3.953125 2.578125 -2.863281 3.234375 -2.09375 C 3.890625 -1.332031 4.828125 -0.953125 6.046875 -0.953125 C 6.785156 -0.953125 7.632812 -1.085938 8.59375 -1.359375 L 8.59375 -0.265625 C 7.851562 0.00390625 6.941406 0.140625 5.859375 0.140625 C 4.273438 0.140625 3.054688 -0.332031 2.203125 -1.28125 C 1.347656 -2.238281 0.921875 -3.601562 0.921875 -5.375 C 0.921875 -6.476562 1.125 -7.441406 1.53125 -8.265625 C 1.945312 -9.097656 2.539062 -9.738281 3.3125 -10.1875 C 4.09375 -10.632812 5.015625 -10.859375 6.078125 -10.859375 C 7.191406 -10.859375 8.171875 -10.65625 9.015625 -10.25 L 8.484375 -9.171875 C 7.671875 -9.554688 6.863281 -9.75 6.0625 -9.75 Z M 6.0625 -9.75 "/></g></g></g><g fill="#ffffff" fill-opacity="1"><g transform="translate(140.698326, 322.319129)"><g><path d="M 8.21875 -4.015625 C 8.21875 -2.710938 7.882812 -1.691406 7.21875 -0.953125 C 6.5625 -0.222656 5.65625 0.140625 4.5 0.140625 C 3.78125 0.140625 3.140625 -0.0234375 2.578125 -0.359375 C 2.023438 -0.691406 1.597656 -1.171875 1.296875 -1.796875 C 0.992188 -2.429688 0.84375 -3.171875 0.84375 -4.015625 C 0.84375 -5.328125 1.171875 -6.347656 1.828125 -7.078125 C 2.484375 -7.804688 3.390625 -8.171875 4.546875 -8.171875 C 5.671875 -8.171875 6.5625 -7.796875 7.21875 -7.046875 C 7.882812 -6.304688 8.21875 -5.296875 8.21875 -4.015625 Z M 2.109375 -4.015625 C 2.109375 -2.992188 2.3125 -2.210938 2.71875 -1.671875 C 3.125 -1.140625 3.726562 -0.875 4.53125 -0.875 C 5.320312 -0.875 5.921875 -1.140625 6.328125 -1.671875 C 6.742188 -2.203125 6.953125 -2.984375 6.953125 -4.015625 C 6.953125 -5.035156 6.742188 -5.8125 6.328125 -6.34375 C 5.921875 -6.875 5.316406 -7.140625 4.515625 -7.140625 C 3.710938 -7.140625 3.109375 -6.878906 2.703125 -6.359375 C 2.304688 -5.835938 2.109375 -5.054688 2.109375 -4.015625 Z M 2.109375 -4.015625 "/></g></g></g><g fill="#ffffff" fill-opacity="1"><g transform="translate(152.938416, 322.319129)"><g><path d="M 6.75 -1.078125 L 6.6875 -1.078125 C 6.125 -0.265625 5.285156 0.140625 4.171875 0.140625 C 3.117188 0.140625 2.300781 -0.210938 1.71875 -0.921875 C 1.132812 -1.640625 0.84375 -2.660156 0.84375 -3.984375 C 0.84375 -5.316406 1.132812 -6.347656 1.71875 -7.078125 C 2.300781 -7.804688 3.117188 -8.171875 4.171875 -8.171875 C 5.253906 -8.171875 6.085938 -7.773438 6.671875 -6.984375 L 6.765625 -6.984375 L 6.71875 -7.5625 L 6.6875 -8.125 L 6.6875 -11.390625 L 7.90625 -11.390625 L 7.90625 0 L 6.921875 0 Z M 4.328125 -0.875 C 5.148438 -0.875 5.75 -1.097656 6.125 -1.546875 C 6.5 -2.003906 6.6875 -2.734375 6.6875 -3.734375 L 6.6875 -3.984375 C 6.6875 -5.128906 6.492188 -5.941406 6.109375 -6.421875 C 5.734375 -6.910156 5.132812 -7.15625 4.3125 -7.15625 C 3.59375 -7.15625 3.046875 -6.878906 2.671875 -6.328125 C 2.296875 -5.773438 2.109375 -4.992188 2.109375 -3.984375 C 2.109375 -2.953125 2.296875 -2.175781 2.671875 -1.65625 C 3.046875 -1.132812 3.597656 -0.875 4.328125 -0.875 Z M 4.328125 -0.875 "/></g></g></g><g fill="#ffffff" fill-opacity="1"><g transform="translate(165.310343, 322.319129)"><g><path d="M 4.6875 0.140625 C 3.5 0.140625 2.5625 -0.21875 1.875 -0.9375 C 1.1875 -1.65625 0.84375 -2.660156 0.84375 -3.953125 C 0.84375 -5.242188 1.160156 -6.269531 1.796875 -7.03125 C 2.429688 -7.789062 3.285156 -8.171875 4.359375 -8.171875 C 5.367188 -8.171875 6.164062 -7.835938 6.75 -7.171875 C 7.332031 -6.515625 7.625 -5.644531 7.625 -4.5625 L 7.625 -3.796875 L 2.109375 -3.796875 C 2.128906 -2.847656 2.363281 -2.128906 2.8125 -1.640625 C 3.269531 -1.160156 3.90625 -0.921875 4.71875 -0.921875 C 5.582031 -0.921875 6.4375 -1.097656 7.28125 -1.453125 L 7.28125 -0.375 C 6.851562 -0.1875 6.445312 -0.0546875 6.0625 0.015625 C 5.6875 0.0976562 5.226562 0.140625 4.6875 0.140625 Z M 4.34375 -7.15625 C 3.707031 -7.15625 3.195312 -6.941406 2.8125 -6.515625 C 2.425781 -6.097656 2.195312 -5.519531 2.125 -4.78125 L 6.328125 -4.78125 C 6.328125 -5.550781 6.15625 -6.140625 5.8125 -6.546875 C 5.46875 -6.953125 4.976562 -7.15625 4.34375 -7.15625 Z M 4.34375 -7.15625 "/></g></g></g><g fill="#ffffff" fill-opacity="1"><g transform="translate(176.905902, 322.319129)"><g/></g></g><g fill="#ffffff" fill-opacity="1"><g transform="translate(183.982419, 322.319129)"><g><path d="M 6.1875 -5.609375 L 9.828125 -5.609375 L 9.828125 -0.40625 C 9.253906 -0.21875 8.675781 -0.0820312 8.09375 0 C 7.507812 0.09375 6.832031 0.140625 6.0625 0.140625 C 4.4375 0.140625 3.171875 -0.335938 2.265625 -1.296875 C 1.367188 -2.265625 0.921875 -3.617188 0.921875 -5.359375 C 0.921875 -6.472656 1.140625 -7.445312 1.578125 -8.28125 C 2.023438 -9.113281 2.671875 -9.75 3.515625 -10.1875 C 4.359375 -10.632812 5.34375 -10.859375 6.46875 -10.859375 C 7.613281 -10.859375 8.675781 -10.648438 9.65625 -10.234375 L 9.171875 -9.140625 C 8.210938 -9.546875 7.285156 -9.75 6.390625 -9.75 C 5.085938 -9.75 4.066406 -9.359375 3.328125 -8.578125 C 2.597656 -7.804688 2.234375 -6.734375 2.234375 -5.359375 C 2.234375 -3.910156 2.582031 -2.8125 3.28125 -2.0625 C 3.988281 -1.3125 5.03125 -0.9375 6.40625 -0.9375 C 7.144531 -0.9375 7.867188 -1.023438 8.578125 -1.203125 L 8.578125 -4.5 L 6.1875 -4.5 Z M 6.1875 -5.609375 "/></g></g></g><g fill="#ffffff" fill-opacity="1"><g transform="translate(198.082866, 322.319129)"><g><path d="M 4.6875 0.140625 C 3.5 0.140625 2.5625 -0.21875 1.875 -0.9375 C 1.1875 -1.65625 0.84375 -2.660156 0.84375 -3.953125 C 0.84375 -5.242188 1.160156 -6.269531 1.796875 -7.03125 C 2.429688 -7.789062 3.285156 -8.171875 4.359375 -8.171875 C 5.367188 -8.171875 6.164062 -7.835938 6.75 -7.171875 C 7.332031 -6.515625 7.625 -5.644531 7.625 -4.5625 L 7.625 -3.796875 L 2.109375 -3.796875 C 2.128906 -2.847656 2.363281 -2.128906 2.8125 -1.640625 C 3.269531 -1.160156 3.90625 -0.921875 4.71875 -0.921875 C 5.582031 -0.921875 6.4375 -1.097656 7.28125 -1.453125 L 7.28125 -0.375 C 6.851562 -0.1875 6.445312 -0.0546875 6.0625 0.015625 C 5.6875 0.0976562 5.226562 0.140625 4.6875 0.140625 Z M 4.34375 -7.15625 C 3.707031 -7.15625 3.195312 -6.941406 2.8125 -6.515625 C 2.425781 -6.097656 2.195312 -5.519531 2.125 -4.78125 L 6.328125 -4.78125 C 6.328125 -5.550781 6.15625 -6.140625 5.8125 -6.546875 C 5.46875 -6.953125 4.976562 -7.15625 4.34375 -7.15625 Z M 4.34375 -7.15625 "/></g></g></g><g fill="#ffffff" fill-opacity="1"><g transform="translate(209.67842, 322.319129)"><g><path d="M 6.78125 0 L 6.78125 -5.1875 C 6.78125 -5.84375 6.628906 -6.332031 6.328125 -6.65625 C 6.035156 -6.976562 5.570312 -7.140625 4.9375 -7.140625 C 4.09375 -7.140625 3.472656 -6.910156 3.078125 -6.453125 C 2.691406 -6.003906 2.5 -5.257812 2.5 -4.21875 L 2.5 0 L 1.296875 0 L 1.296875 -8.03125 L 2.28125 -8.03125 L 2.46875 -6.921875 L 2.53125 -6.921875 C 2.78125 -7.316406 3.128906 -7.625 3.578125 -7.84375 C 4.023438 -8.0625 4.523438 -8.171875 5.078125 -8.171875 C 6.046875 -8.171875 6.773438 -7.9375 7.265625 -7.46875 C 7.753906 -7.007812 8 -6.265625 8 -5.234375 L 8 0 Z M 6.78125 0 "/></g></g></g><g fill="#ffffff" fill-opacity="1"><g transform="translate(222.064989, 322.319129)"><g><path d="M 4.6875 0.140625 C 3.5 0.140625 2.5625 -0.21875 1.875 -0.9375 C 1.1875 -1.65625 0.84375 -2.660156 0.84375 -3.953125 C 0.84375 -5.242188 1.160156 -6.269531 1.796875 -7.03125 C 2.429688 -7.789062 3.285156 -8.171875 4.359375 -8.171875 C 5.367188 -8.171875 6.164062 -7.835938 6.75 -7.171875 C 7.332031 -6.515625 7.625 -5.644531 7.625 -4.5625 L 7.625 -3.796875 L 2.109375 -3.796875 C 2.128906 -2.847656 2.363281 -2.128906 2.8125 -1.640625 C 3.269531 -1.160156 3.90625 -0.921875 4.71875 -0.921875 C 5.582031 -0.921875 6.4375 -1.097656 7.28125 -1.453125 L 7.28125 -0.375 C 6.851562 -0.1875 6.445312 -0.0546875 6.0625 0.015625 C 5.6875 0.0976562 5.226562 0.140625 4.6875 0.140625 Z M 4.34375 -7.15625 C 3.707031 -7.15625 3.195312 -6.941406 2.8125 -6.515625 C 2.425781 -6.097656 2.195312 -5.519531 2.125 -4.78125 L 6.328125 -4.78125 C 6.328125 -5.550781 6.15625 -6.140625 5.8125 -6.546875 C 5.46875 -6.953125 4.976562 -7.15625 4.34375 -7.15625 Z M 4.34375 -7.15625 "/></g></g></g><g fill="#ffffff" fill-opacity="1"><g transform="translate(233.660543, 322.319129)"><g><path d="M 4.953125 -8.171875 C 5.304688 -8.171875 5.625 -8.144531 5.90625 -8.09375 L 5.75 -6.953125 C 5.414062 -7.023438 5.117188 -7.0625 4.859375 -7.0625 C 4.210938 -7.0625 3.65625 -6.796875 3.1875 -6.265625 C 2.726562 -5.742188 2.5 -5.09375 2.5 -4.3125 L 2.5 0 L 1.296875 0 L 1.296875 -8.03125 L 2.296875 -8.03125 L 2.4375 -6.546875 L 2.484375 -6.546875 C 2.785156 -7.066406 3.144531 -7.46875 3.5625 -7.75 C 3.988281 -8.03125 4.453125 -8.171875 4.953125 -8.171875 Z M 4.953125 -8.171875 "/></g></g></g><g fill="#ffffff" fill-opacity="1"><g transform="translate(242.963616, 322.319129)"><g><path d="M 6.21875 0 L 5.984375 -1.140625 L 5.921875 -1.140625 C 5.523438 -0.640625 5.125 -0.300781 4.71875 -0.125 C 4.320312 0.0507812 3.828125 0.140625 3.234375 0.140625 C 2.441406 0.140625 1.816406 -0.0625 1.359375 -0.46875 C 0.910156 -0.875 0.6875 -1.457031 0.6875 -2.21875 C 0.6875 -3.84375 1.984375 -4.691406 4.578125 -4.765625 L 5.9375 -4.8125 L 5.9375 -5.3125 C 5.9375 -5.9375 5.800781 -6.398438 5.53125 -6.703125 C 5.257812 -7.003906 4.828125 -7.15625 4.234375 -7.15625 C 3.566406 -7.15625 2.8125 -6.953125 1.96875 -6.546875 L 1.59375 -7.46875 C 1.988281 -7.6875 2.421875 -7.851562 2.890625 -7.96875 C 3.359375 -8.09375 3.832031 -8.15625 4.3125 -8.15625 C 5.269531 -8.15625 5.976562 -7.941406 6.4375 -7.515625 C 6.894531 -7.097656 7.125 -6.421875 7.125 -5.484375 L 7.125 0 Z M 3.484375 -0.859375 C 4.234375 -0.859375 4.820312 -1.066406 5.25 -1.484375 C 5.6875 -1.898438 5.90625 -2.476562 5.90625 -3.21875 L 5.90625 -3.953125 L 4.6875 -3.890625 C 3.726562 -3.859375 3.035156 -3.707031 2.609375 -3.4375 C 2.179688 -3.175781 1.96875 -2.765625 1.96875 -2.203125 C 1.96875 -1.765625 2.097656 -1.429688 2.359375 -1.203125 C 2.628906 -0.972656 3.003906 -0.859375 3.484375 -0.859375 Z M 3.484375 -0.859375 "/></g></g></g><g fill="#ffffff" fill-opacity="1"><g transform="translate(254.485927, 322.319129)"><g><path d="M 3.875 -0.859375 C 4.09375 -0.859375 4.300781 -0.875 4.5 -0.90625 C 4.707031 -0.9375 4.867188 -0.96875 4.984375 -1 L 4.984375 -0.078125 C 4.847656 -0.015625 4.648438 0.0351562 4.390625 0.078125 C 4.140625 0.117188 3.910156 0.140625 3.703125 0.140625 C 2.148438 0.140625 1.375 -0.675781 1.375 -2.3125 L 1.375 -7.078125 L 0.234375 -7.078125 L 0.234375 -7.671875 L 1.375 -8.171875 L 1.890625 -9.890625 L 2.59375 -9.890625 L 2.59375 -8.03125 L 4.921875 -8.03125 L 4.921875 -7.078125 L 2.59375 -7.078125 L 2.59375 -2.359375 C 2.59375 -1.878906 2.707031 -1.507812 2.9375 -1.25 C 3.164062 -0.988281 3.476562 -0.859375 3.875 -0.859375 Z M 3.875 -0.859375 "/></g></g></g><g fill="#ffffff" fill-opacity="1"><g transform="translate(262.961364, 322.319129)"><g><path d="M 8.21875 -4.015625 C 8.21875 -2.710938 7.882812 -1.691406 7.21875 -0.953125 C 6.5625 -0.222656 5.65625 0.140625 4.5 0.140625 C 3.78125 0.140625 3.140625 -0.0234375 2.578125 -0.359375 C 2.023438 -0.691406 1.597656 -1.171875 1.296875 -1.796875 C 0.992188 -2.429688 0.84375 -3.171875 0.84375 -4.015625 C 0.84375 -5.328125 1.171875 -6.347656 1.828125 -7.078125 C 2.484375 -7.804688 3.390625 -8.171875 4.546875 -8.171875 C 5.671875 -8.171875 6.5625 -7.796875 7.21875 -7.046875 C 7.882812 -6.304688 8.21875 -5.296875 8.21875 -4.015625 Z M 2.109375 -4.015625 C 2.109375 -2.992188 2.3125 -2.210938 2.71875 -1.671875 C 3.125 -1.140625 3.726562 -0.875 4.53125 -0.875 C 5.320312 -0.875 5.921875 -1.140625 6.328125 -1.671875 C 6.742188 -2.203125 6.953125 -2.984375 6.953125 -4.015625 C 6.953125 -5.035156 6.742188 -5.8125 6.328125 -6.34375 C 5.921875 -6.875 5.316406 -7.140625 4.515625 -7.140625 C 3.710938 -7.140625 3.109375 -6.878906 2.703125 -6.359375 C 2.304688 -5.835938 2.109375 -5.054688 2.109375 -4.015625 Z M 2.109375 -4.015625 "/></g></g></g><g fill="#ffffff" fill-opacity="1"><g transform="translate(275.20146, 322.319129)"><g><path d="M 4.953125 -8.171875 C 5.304688 -8.171875 5.625 -8.144531 5.90625 -8.09375 L 5.75 -6.953125 C 5.414062 -7.023438 5.117188 -7.0625 4.859375 -7.0625 C 4.210938 -7.0625 3.65625 -6.796875 3.1875 -6.265625 C 2.726562 -5.742188 2.5 -5.09375 2.5 -4.3125 L 2.5 0 L 1.296875 0 L 1.296875 -8.03125 L 2.296875 -8.03125 L 2.4375 -6.546875 L 2.484375 -6.546875 C 2.785156 -7.066406 3.144531 -7.46875 3.5625 -7.75 C 3.988281 -8.03125 4.453125 -8.171875 4.953125 -8.171875 Z M 4.953125 -8.171875 "/></g></g></g><g fill="#ffffff" fill-opacity="1"><g transform="translate(107.460935, 300.772012)"><g><path d="M 18.625 -21.09375 C 19.132812 -20.8125 19.390625 -20.382812 19.390625 -19.8125 C 19.390625 -19.425781 19.265625 -19.070312 19.015625 -18.75 C 18.753906 -18.40625 18.398438 -18.234375 17.953125 -18.234375 C 17.648438 -18.234375 17.363281 -18.3125 17.09375 -18.46875 C 15.769531 -19.207031 14.335938 -19.578125 12.796875 -19.578125 C 11.203125 -19.578125 9.789062 -19.222656 8.5625 -18.515625 C 7.332031 -17.816406 6.375 -16.832031 5.6875 -15.5625 C 5.007812 -14.289062 4.671875 -12.835938 4.671875 -11.203125 C 4.671875 -9.429688 5.019531 -7.90625 5.71875 -6.625 C 6.425781 -5.34375 7.398438 -4.363281 8.640625 -3.6875 C 9.878906 -3.019531 11.265625 -2.6875 12.796875 -2.6875 C 14.378906 -2.6875 15.8125 -3.070312 17.09375 -3.84375 C 17.34375 -3.96875 17.617188 -4.03125 17.921875 -4.03125 C 18.390625 -4.03125 18.765625 -3.847656 19.046875 -3.484375 C 19.296875 -3.171875 19.421875 -2.832031 19.421875 -2.46875 C 19.421875 -2.207031 19.351562 -1.960938 19.21875 -1.734375 C 19.082031 -1.515625 18.894531 -1.34375 18.65625 -1.21875 C 17.820312 -0.75 16.882812 -0.375 15.84375 -0.09375 C 14.8125 0.175781 13.796875 0.3125 12.796875 0.3125 C 10.734375 0.3125 8.832031 -0.144531 7.09375 -1.0625 C 5.351562 -1.976562 3.960938 -3.3125 2.921875 -5.0625 C 1.890625 -6.8125 1.375 -8.859375 1.375 -11.203125 C 1.375 -13.359375 1.867188 -15.300781 2.859375 -17.03125 C 3.859375 -18.769531 5.222656 -20.132812 6.953125 -21.125 C 8.691406 -22.125 10.640625 -22.625 12.796875 -22.625 C 14.867188 -22.625 16.8125 -22.113281 18.625 -21.09375 Z M 18.625 -21.09375 "/></g></g></g><g fill="#ffffff" fill-opacity="1"><g transform="translate(127.871917, 300.772012)"><g><path d="M 18.140625 -8.390625 C 18.140625 -6.722656 17.765625 -5.226562 17.015625 -3.90625 C 16.273438 -2.582031 15.257812 -1.546875 13.96875 -0.796875 C 12.675781 -0.0546875 11.253906 0.3125 9.703125 0.3125 C 8.140625 0.3125 6.710938 -0.0546875 5.421875 -0.796875 C 4.128906 -1.546875 3.109375 -2.582031 2.359375 -3.90625 C 1.617188 -5.226562 1.25 -6.722656 1.25 -8.390625 C 1.25 -10.046875 1.617188 -11.546875 2.359375 -12.890625 C 3.109375 -14.234375 4.128906 -15.28125 5.421875 -16.03125 C 6.710938 -16.78125 8.140625 -17.15625 9.703125 -17.15625 C 11.253906 -17.15625 12.675781 -16.78125 13.96875 -16.03125 C 15.257812 -15.28125 16.273438 -14.234375 17.015625 -12.890625 C 17.765625 -11.546875 18.140625 -10.046875 18.140625 -8.390625 Z M 15.109375 -8.390625 C 15.109375 -9.535156 14.863281 -10.5625 14.375 -11.46875 C 13.894531 -12.375 13.242188 -13.078125 12.421875 -13.578125 C 11.609375 -14.085938 10.703125 -14.34375 9.703125 -14.34375 C 8.691406 -14.34375 7.773438 -14.085938 6.953125 -13.578125 C 6.140625 -13.078125 5.488281 -12.375 5 -11.46875 C 4.519531 -10.5625 4.28125 -9.535156 4.28125 -8.390625 C 4.28125 -7.253906 4.519531 -6.238281 5 -5.34375 C 5.488281 -4.445312 6.140625 -3.75 6.953125 -3.25 C 7.773438 -2.75 8.691406 -2.5 9.703125 -2.5 C 10.703125 -2.5 11.609375 -2.75 12.421875 -3.25 C 13.242188 -3.75 13.894531 -4.445312 14.375 -5.34375 C 14.863281 -6.238281 15.109375 -7.253906 15.109375 -8.390625 Z M 15.109375 -8.390625 "/></g></g></g><g fill="#ffffff" fill-opacity="1"><g transform="translate(147.259146, 300.772012)"><g><path d="M 15.875 -23.6875 C 16.320312 -23.6875 16.6875 -23.539062 16.96875 -23.25 C 17.257812 -22.957031 17.40625 -22.585938 17.40625 -22.140625 L 17.40625 -1.53125 C 17.40625 -1.101562 17.257812 -0.738281 16.96875 -0.4375 C 16.6875 -0.144531 16.320312 0 15.875 0 C 15.425781 0 15.0625 -0.140625 14.78125 -0.421875 C 14.507812 -0.710938 14.375 -1.082031 14.375 -1.53125 L 14.375 -2.4375 C 13.832031 -1.664062 13.078125 -1.015625 12.109375 -0.484375 C 11.140625 0.046875 10.097656 0.3125 8.984375 0.3125 C 7.535156 0.3125 6.222656 -0.0546875 5.046875 -0.796875 C 3.878906 -1.546875 2.953125 -2.585938 2.265625 -3.921875 C 1.585938 -5.253906 1.25 -6.753906 1.25 -8.421875 C 1.25 -10.078125 1.582031 -11.570312 2.25 -12.90625 C 2.925781 -14.238281 3.847656 -15.28125 5.015625 -16.03125 C 6.191406 -16.78125 7.484375 -17.15625 8.890625 -17.15625 C 10.023438 -17.15625 11.070312 -16.921875 12.03125 -16.453125 C 12.988281 -15.984375 13.769531 -15.375 14.375 -14.625 L 14.375 -22.140625 C 14.375 -22.585938 14.507812 -22.957031 14.78125 -23.25 C 15.0625 -23.539062 15.425781 -23.6875 15.875 -23.6875 Z M 9.34375 -2.5 C 10.34375 -2.5 11.234375 -2.753906 12.015625 -3.265625 C 12.796875 -3.773438 13.40625 -4.476562 13.84375 -5.375 C 14.28125 -6.269531 14.5 -7.285156 14.5 -8.421875 C 14.5 -9.523438 14.28125 -10.53125 13.84375 -11.4375 C 13.40625 -12.34375 12.796875 -13.050781 12.015625 -13.5625 C 11.234375 -14.082031 10.34375 -14.34375 9.34375 -14.34375 C 8.34375 -14.34375 7.453125 -14.082031 6.671875 -13.5625 C 5.890625 -13.050781 5.28125 -12.34375 4.84375 -11.4375 C 4.40625 -10.53125 4.1875 -9.523438 4.1875 -8.421875 C 4.1875 -7.285156 4.40625 -6.269531 4.84375 -5.375 C 5.28125 -4.476562 5.890625 -3.773438 6.671875 -3.265625 C 7.453125 -2.753906 8.34375 -2.5 9.34375 -2.5 Z M 9.34375 -2.5 "/></g></g></g><g fill="#ffffff" fill-opacity="1"><g transform="translate(166.902322, 300.772012)"><g><path d="M 16.984375 -9.03125 C 16.960938 -8.644531 16.800781 -8.316406 16.5 -8.046875 C 16.207031 -7.773438 15.859375 -7.640625 15.453125 -7.640625 L 4.1875 -7.640625 C 4.34375 -6.085938 4.9375 -4.84375 5.96875 -3.90625 C 7 -2.96875 8.265625 -2.5 9.765625 -2.5 C 10.785156 -2.5 11.613281 -2.644531 12.25 -2.9375 C 12.894531 -3.238281 13.460938 -3.625 13.953125 -4.09375 C 14.273438 -4.289062 14.582031 -4.390625 14.875 -4.390625 C 15.238281 -4.390625 15.539062 -4.257812 15.78125 -4 C 16.03125 -3.738281 16.15625 -3.441406 16.15625 -3.109375 C 16.15625 -2.660156 15.941406 -2.253906 15.515625 -1.890625 C 14.898438 -1.265625 14.078125 -0.738281 13.046875 -0.3125 C 12.023438 0.101562 10.984375 0.3125 9.921875 0.3125 C 8.191406 0.3125 6.671875 -0.046875 5.359375 -0.765625 C 4.046875 -1.492188 3.03125 -2.507812 2.3125 -3.8125 C 1.601562 -5.113281 1.25 -6.582031 1.25 -8.21875 C 1.25 -10.007812 1.613281 -11.582031 2.34375 -12.9375 C 3.082031 -14.289062 4.054688 -15.332031 5.265625 -16.0625 C 6.472656 -16.789062 7.769531 -17.15625 9.15625 -17.15625 C 10.519531 -17.15625 11.796875 -16.800781 12.984375 -16.09375 C 14.179688 -15.394531 15.140625 -14.425781 15.859375 -13.1875 C 16.585938 -11.945312 16.960938 -10.5625 16.984375 -9.03125 Z M 9.15625 -14.34375 C 7.957031 -14.34375 6.921875 -14.003906 6.046875 -13.328125 C 5.171875 -12.648438 4.59375 -11.609375 4.3125 -10.203125 L 13.765625 -10.203125 L 13.765625 -10.46875 C 13.648438 -11.59375 13.140625 -12.519531 12.234375 -13.25 C 11.328125 -13.976562 10.300781 -14.34375 9.15625 -14.34375 Z M 9.15625 -14.34375 "/></g></g></g><g fill="#ffffff" fill-opacity="1"><g transform="translate(185.13784, 300.772012)"><g/></g></g><g fill="#ffffff" fill-opacity="1"><g transform="translate(193.999664, 300.772012)"><g><path d="M 9.4375 0.3125 C 7.882812 0.3125 6.507812 0.0976562 5.3125 -0.328125 C 4.113281 -0.765625 2.972656 -1.476562 1.890625 -2.46875 C 1.441406 -2.851562 1.21875 -3.289062 1.21875 -3.78125 C 1.21875 -4.164062 1.363281 -4.507812 1.65625 -4.8125 C 1.957031 -5.125 2.3125 -5.28125 2.71875 -5.28125 C 3.082031 -5.28125 3.390625 -5.160156 3.640625 -4.921875 C 4.492188 -4.140625 5.375 -3.5625 6.28125 -3.1875 C 7.1875 -2.8125 8.21875 -2.625 9.375 -2.625 C 10.71875 -2.625 11.851562 -2.929688 12.78125 -3.546875 C 13.707031 -4.171875 14.171875 -4.953125 14.171875 -5.890625 C 14.148438 -6.992188 13.6875 -7.847656 12.78125 -8.453125 C 11.875 -9.066406 10.492188 -9.578125 8.640625 -9.984375 C 6.441406 -10.429688 4.75 -11.164062 3.5625 -12.1875 C 2.382812 -13.21875 1.796875 -14.640625 1.796875 -16.453125 C 1.796875 -17.710938 2.125 -18.816406 2.78125 -19.765625 C 3.445312 -20.710938 4.363281 -21.441406 5.53125 -21.953125 C 6.707031 -22.460938 8.03125 -22.71875 9.5 -22.71875 C 10.820312 -22.71875 12.070312 -22.503906 13.25 -22.078125 C 14.425781 -21.648438 15.375 -21.085938 16.09375 -20.390625 C 16.582031 -19.960938 16.828125 -19.503906 16.828125 -19.015625 C 16.828125 -18.628906 16.679688 -18.285156 16.390625 -17.984375 C 16.109375 -17.679688 15.765625 -17.53125 15.359375 -17.53125 C 15.054688 -17.53125 14.8125 -17.617188 14.625 -17.796875 C 14.070312 -18.347656 13.300781 -18.816406 12.3125 -19.203125 C 11.332031 -19.585938 10.394531 -19.78125 9.5 -19.78125 C 8.070312 -19.78125 6.9375 -19.484375 6.09375 -18.890625 C 5.25 -18.304688 4.828125 -17.535156 4.828125 -16.578125 C 4.828125 -15.535156 5.25 -14.734375 6.09375 -14.171875 C 6.9375 -13.617188 8.191406 -13.148438 9.859375 -12.765625 C 11.523438 -12.398438 12.882812 -11.972656 13.9375 -11.484375 C 14.988281 -10.992188 15.800781 -10.3125 16.375 -9.4375 C 16.957031 -8.5625 17.25 -7.421875 17.25 -6.015625 C 17.25 -4.773438 16.898438 -3.675781 16.203125 -2.71875 C 15.515625 -1.757812 14.570312 -1.015625 13.375 -0.484375 C 12.175781 0.046875 10.863281 0.3125 9.4375 0.3125 Z M 9.4375 0.3125 "/></g></g></g><g fill="#ffffff" fill-opacity="1"><g transform="translate(212.619085, 300.772012)"><g><path d="M 9.5625 -17.15625 C 11.25 -17.15625 12.648438 -16.882812 13.765625 -16.34375 C 14.890625 -15.8125 15.453125 -15.128906 15.453125 -14.296875 C 15.453125 -13.941406 15.332031 -13.617188 15.09375 -13.328125 C 14.863281 -13.035156 14.566406 -12.890625 14.203125 -12.890625 C 13.929688 -12.890625 13.710938 -12.929688 13.546875 -13.015625 C 13.390625 -13.109375 13.171875 -13.25 12.890625 -13.4375 C 12.765625 -13.5625 12.5625 -13.710938 12.28125 -13.890625 C 12.03125 -14.015625 11.671875 -14.117188 11.203125 -14.203125 C 10.734375 -14.296875 10.304688 -14.34375 9.921875 -14.34375 C 8.804688 -14.34375 7.820312 -14.082031 6.96875 -13.5625 C 6.125 -13.050781 5.460938 -12.34375 4.984375 -11.4375 C 4.515625 -10.53125 4.28125 -9.523438 4.28125 -8.421875 C 4.28125 -7.285156 4.507812 -6.269531 4.96875 -5.375 C 5.425781 -4.476562 6.070312 -3.773438 6.90625 -3.265625 C 7.738281 -2.753906 8.691406 -2.5 9.765625 -2.5 C 10.867188 -2.5 11.765625 -2.671875 12.453125 -3.015625 C 12.597656 -3.097656 12.800781 -3.234375 13.0625 -3.421875 C 13.269531 -3.597656 13.453125 -3.726562 13.609375 -3.8125 C 13.773438 -3.894531 13.972656 -3.9375 14.203125 -3.9375 C 14.628906 -3.9375 14.960938 -3.800781 15.203125 -3.53125 C 15.453125 -3.269531 15.578125 -2.925781 15.578125 -2.5 C 15.578125 -2.050781 15.296875 -1.609375 14.734375 -1.171875 C 14.171875 -0.734375 13.414062 -0.375 12.46875 -0.09375 C 11.519531 0.175781 10.5 0.3125 9.40625 0.3125 C 7.78125 0.3125 6.347656 -0.0625 5.109375 -0.8125 C 3.878906 -1.570312 2.925781 -2.617188 2.25 -3.953125 C 1.582031 -5.285156 1.25 -6.773438 1.25 -8.421875 C 1.25 -10.054688 1.597656 -11.539062 2.296875 -12.875 C 3.003906 -14.207031 3.988281 -15.253906 5.25 -16.015625 C 6.507812 -16.773438 7.945312 -17.15625 9.5625 -17.15625 Z M 9.5625 -17.15625 "/></g></g></g><g fill="#ffffff" fill-opacity="1"><g transform="translate(229.063043, 300.772012)"><g><path d="M 15.875 -16.984375 C 16.320312 -16.984375 16.6875 -16.835938 16.96875 -16.546875 C 17.257812 -16.265625 17.40625 -15.890625 17.40625 -15.421875 L 17.40625 -1.53125 C 17.40625 -1.101562 17.257812 -0.738281 16.96875 -0.4375 C 16.6875 -0.144531 16.320312 0 15.875 0 C 15.425781 0 15.0625 -0.140625 14.78125 -0.421875 C 14.507812 -0.710938 14.375 -1.082031 14.375 -1.53125 L 14.375 -2.375 C 13.8125 -1.625 13.050781 -0.988281 12.09375 -0.46875 C 11.132812 0.0507812 10.097656 0.3125 8.984375 0.3125 C 7.535156 0.3125 6.21875 -0.0546875 5.03125 -0.796875 C 3.851562 -1.546875 2.925781 -2.585938 2.25 -3.921875 C 1.582031 -5.253906 1.25 -6.753906 1.25 -8.421875 C 1.25 -10.078125 1.582031 -11.570312 2.25 -12.90625 C 2.925781 -14.238281 3.847656 -15.28125 5.015625 -16.03125 C 6.191406 -16.78125 7.484375 -17.15625 8.890625 -17.15625 C 10.023438 -17.15625 11.078125 -16.921875 12.046875 -16.453125 C 13.015625 -15.984375 13.789062 -15.382812 14.375 -14.65625 L 14.375 -15.421875 C 14.375 -15.867188 14.507812 -16.238281 14.78125 -16.53125 C 15.0625 -16.832031 15.425781 -16.984375 15.875 -16.984375 Z M 9.34375 -2.5 C 10.34375 -2.5 11.234375 -2.753906 12.015625 -3.265625 C 12.796875 -3.773438 13.40625 -4.476562 13.84375 -5.375 C 14.28125 -6.269531 14.5 -7.285156 14.5 -8.421875 C 14.5 -9.523438 14.28125 -10.523438 13.84375 -11.421875 C 13.40625 -12.316406 12.796875 -13.023438 12.015625 -13.546875 C 11.234375 -14.078125 10.34375 -14.34375 9.34375 -14.34375 C 8.34375 -14.34375 7.453125 -14.082031 6.671875 -13.5625 C 5.890625 -13.050781 5.28125 -12.347656 4.84375 -11.453125 C 4.40625 -10.554688 4.1875 -9.546875 4.1875 -8.421875 C 4.1875 -7.285156 4.40625 -6.269531 4.84375 -5.375 C 5.28125 -4.476562 5.890625 -3.773438 6.671875 -3.265625 C 7.453125 -2.753906 8.34375 -2.5 9.34375 -2.5 Z M 9.34375 -2.5 "/></g></g></g><g fill="#ffffff" fill-opacity="1"><g transform="translate(248.706219, 300.772012)"><g><path d="M 10.8125 -17.15625 C 14.65625 -17.15625 16.578125 -14.847656 16.578125 -10.234375 L 16.578125 -1.53125 C 16.578125 -1.101562 16.429688 -0.738281 16.140625 -0.4375 C 15.859375 -0.144531 15.492188 0 15.046875 0 C 14.617188 0 14.257812 -0.144531 13.96875 -0.4375 C 13.675781 -0.738281 13.53125 -1.101562 13.53125 -1.53125 L 13.53125 -10.203125 C 13.53125 -11.460938 13.242188 -12.46875 12.671875 -13.21875 C 12.097656 -13.96875 11.160156 -14.34375 9.859375 -14.34375 C 9.003906 -14.34375 8.226562 -14.15625 7.53125 -13.78125 C 6.84375 -13.40625 6.300781 -12.898438 5.90625 -12.265625 C 5.507812 -11.640625 5.3125 -10.953125 5.3125 -10.203125 L 5.3125 -1.53125 C 5.3125 -1.101562 5.164062 -0.738281 4.875 -0.4375 C 4.59375 -0.144531 4.226562 0 3.78125 0 C 3.332031 0 2.96875 -0.140625 2.6875 -0.421875 C 2.40625 -0.710938 2.265625 -1.082031 2.265625 -1.53125 L 2.265625 -15.234375 C 2.265625 -15.660156 2.410156 -16.019531 2.703125 -16.3125 C 2.992188 -16.613281 3.351562 -16.765625 3.78125 -16.765625 C 4.226562 -16.765625 4.59375 -16.613281 4.875 -16.3125 C 5.164062 -16.019531 5.3125 -15.660156 5.3125 -15.234375 L 5.3125 -14.109375 C 5.863281 -14.960938 6.632812 -15.679688 7.625 -16.265625 C 8.625 -16.859375 9.6875 -17.15625 10.8125 -17.15625 Z M 10.8125 -17.15625 "/></g></g></g></svg>